<?xml version="1.0" encoding="UTF-8"?>
<svg xmlns="http://www.w3.org/2000/svg" xmlns:xlink="http://www.w3.org/1999/xlink" width="24px" height="24px" viewBox="0 0 24 24" version="1.1">
<g id="surface1">
<path style="fill-rule:nonzero;fill:rgb(100%,100%,100%);fill-opacity:1;stroke-width:1;stroke-linecap:butt;stroke-linejoin:miter;stroke:rgb(100%,100%,100%);stroke-opacity:1;stroke-miterlimit:4;" d="M 487.092747 225.525313 L 412.025151 150.457717 L 412.025151 63.698605 C 412.025151 48.056162 399.28543 35.316442 383.562357 35.316442 C 367.919915 35.316442 355.180194 48.056162 355.180194 63.698605 L 355.180194 93.69339 L 299.30281 37.735376 C 271.726959 10.078893 223.590165 10.159524 196.014313 37.816007 L 8.305008 225.525313 C -2.741459 236.652411 -2.741459 254.552525 8.305008 265.679623 C 19.432106 276.806721 37.412851 276.806721 48.459318 265.679623 L 236.168624 77.970317 C 242.296591 71.84235 253.101164 71.84235 259.1485 77.970317 L 446.938437 265.679623 C 452.501986 271.243172 459.758789 273.984631 467.015592 273.984631 C 474.272395 273.984631 481.529198 271.243172 487.092747 265.679623 C 498.139214 254.552525 498.139214 236.652411 487.092747 225.525313 Z M 487.092747 225.525313 " transform="matrix(0.0484459,0,0,0.0484459,0,0)"/>
<path style="fill-rule:nonzero;fill:rgb(100%,100%,100%);fill-opacity:1;stroke-width:1;stroke-linecap:butt;stroke-linejoin:miter;stroke:rgb(100%,100%,100%);stroke-opacity:1;stroke-miterlimit:4;" d="M 257.535877 131.831922 C 252.13359 126.349004 243.264164 126.349004 237.861878 131.831922 L 72.729293 296.883876 C 70.068465 299.544704 68.617104 303.092474 68.617104 306.801507 L 68.617104 427.183806 C 68.617104 455.404707 91.51635 478.384583 119.817881 478.384583 L 201.577862 478.384583 L 201.577862 351.793686 L 293.819892 351.793686 L 293.819892 478.384583 L 375.579873 478.384583 C 403.881405 478.384583 426.78065 455.404707 426.78065 427.183806 L 426.78065 306.801507 C 426.78065 303.092474 425.32929 299.544704 422.668462 296.883876 Z M 257.535877 131.831922 " transform="matrix(0.0484459,0,0,0.0484459,0,0)"/>
</g>
</svg>
